<?xml version="1.0" encoding="utf-8"?>
<!-- Generator: Adobe Illustrator 26.0.1, SVG Export Plug-In . SVG Version: 6.00 Build 0)  -->
<svg version="1.1" id="Layer_1" xmlns="http://www.w3.org/2000/svg" xmlns:xlink="http://www.w3.org/1999/xlink" x="0px"
     y="0px"
     viewBox="0 0 500 500" style="enable-background:new 0 0 500 500;" xml:space="preserve">
<style type="text/css">
	.st0{fill:blue!important;stroke:blue;stroke-width:12;stroke-miterlimit:10;}
	.st1{fill:none;stroke:#7963e0;stroke-width:12;stroke-miterlimit:10;}
</style>
    <path fill="blue" class="st0" d="M50.14,383.04"/>
    <path fill="blue" class="st0" d="M0,149.65"/>
    <path fill="blue" class="st1" d="M101.25,122.67"/>
    <line fill="blue" class="st1" x1="105.48" y1="475.26" x2="392.39" y2="165.16"/>
    <path fill="blue" class="st1" d="M352.37,112.12"/>
    <path fill="blue" class="st1" d="M192.76,140.85"/>
    <path fill="blue" class="st1" d="M260.65,70.1"/>
    <polyline style="stroke:#cb63ce" class="st1" points="287.91,29.66 370.39,109.27 417.62,62.05 "/>
    <polyline class="st1" points="253.53,79.53 325.06,148.19 17,479.25 "/>
    <path fill="blue" class="st1" d="M262.25,99.93"/>
    <path fill="blue" class="st1" d="M168.45,9"/>
    <path fill="blue" class="st1" d="M147.93,226.35"/>
    <path fill="blue" class="st1" d="M54.14,135.43"/>
    <polyline class="st1" points="265.72,217.62 192.98,145.75 260,76.73 "/>
    <polyline class="st1" points="133.7,181.72 170.95,216.1 28.81,377.55 "/>
    <path fill="blue" class="st1" d="M-2,271.81"/>
    <line fill="blue" class="st1" x1="90.57" y1="244.9" x2="26.63" y2="317.24"/>
    <path fill="blue" class="st0" d="M386.8,462.66"/>
    <polyline class="st1" points="192.4,473.89 488,155.63 427.91,97.72 "/>
</svg>
